<?xml version="1.0" encoding="UTF-8"?>
<svg width="48px" height="48px" viewBox="0 0 48 48" version="1.1" xmlns="http://www.w3.org/2000/svg">
    <title>Google Drive Logo</title>
    <g stroke="none" stroke-width="1" fill="none" fill-rule="evenodd">
        <path d="M8.62603,37.7507 L15.3067,26.0033 L31.667,26.0033 L24.9863,37.7507 L8.62603,37.7507 Z" fill="#0066DA" fill-rule="nonzero"></path>
        <path d="M31.667,26.0033 L38.3477,37.7507 L47.3333,37.7507 L40.6527,26.0033 L31.667,26.0033 Z" fill="#00AC47" fill-rule="nonzero"></path>
        <path d="M15.9847,10.2493 L8.62603,37.7507 L15.3067,26.0033 L24.9863,10.2493 L15.9847,10.2493 Z" fill="#EA4335" fill-rule="nonzero"></path>
        <path d="M24.9863,10.2493 L15.3067,26.0033 L31.667,26.0033 L40.6527,10.2493 L24.9863,10.2493 Z" fill="#00832D" fill-rule="nonzero"></path>
        <path d="M40.6527,10.2493 L47.3333,10.2493 L47.3333,37.7507 L38.3477,37.7507 L31.667,26.0033 L40.6527,10.2493 Z" fill="#2684FC" fill-rule="nonzero"></path>
        <path d="M0.666667,37.7507 L8.62603,37.7507 L15.9847,10.2493 L8.02533,10.2493 L0.666667,10.2493 L0.666667,37.7507 Z" fill="#FFBA00" fill-rule="nonzero"></path>
    </g>
</svg>
