<?xml version="1.0" encoding="UTF-8"?>
<svg width="400px" height="250px" viewBox="0 0 400 250" version="1.1" xmlns="http://www.w3.org/2000/svg">
    <title>Model Usage Over Time Chart</title>
    <g stroke="none" stroke-width="1" fill="none" fill-rule="evenodd">
        <rect fill="#FFFFFF" x="0" y="0" width="400" height="250"></rect>
        
        <!-- Chart Grid -->
        <g transform="translate(50, 40)" stroke="#EAEAEA" stroke-width="1">
            <!-- Horizontal Grid Lines -->
            <line x1="0" y1="0" x2="300" y2="0"></line>
            <line x1="0" y1="40" x2="300" y2="40"></line>
            <line x1="0" y1="80" x2="300" y2="80"></line>
            <line x1="0" y1="120" x2="300" y2="120"></line>
            <line x1="0" y1="160" x2="300" y2="160"></line>
            
            <!-- Vertical Grid Lines -->
            <line x1="0" y1="0" x2="0" y2="160"></line>
            <line x1="60" y1="0" x2="60" y2="160"></line>
            <line x1="120" y1="0" x2="120" y2="160"></line>
            <line x1="180" y1="0" x2="180" y2="160"></line>
            <line x1="240" y1="0" x2="240" y2="160"></line>
            <line x1="300" y1="0" x2="300" y2="160"></line>
        </g>
        
        <!-- Y-Axis Labels -->
        <g transform="translate(45, 45)" font-family="Inter, sans-serif" font-size="11" fill="#666">
            <text x="0" y="0" text-anchor="end">50</text>
            <text x="0" y="40" text-anchor="end">40</text>
            <text x="0" y="80" text-anchor="end">30</text>
            <text x="0" y="120" text-anchor="end">20</text>
            <text x="0" y="160" text-anchor="end">10</text>
        </g>
        
        <!-- X-Axis Labels -->
        <g transform="translate(50, 210)" font-family="Inter, sans-serif" font-size="11" fill="#666">
            <text x="0" y="0" text-anchor="middle">Jan</text>
            <text x="60" y="0" text-anchor="middle">Feb</text>
            <text x="120" y="0" text-anchor="middle">Mar</text>
            <text x="180" y="0" text-anchor="middle">Apr</text>
            <text x="240" y="0" text-anchor="middle">May</text>
            <text x="300" y="0" text-anchor="middle">Jun</text>
        </g>
        
        <!-- Axes Labels -->
        <text x="200" y="230" font-family="Inter, sans-serif" font-size="12" fill="#333" text-anchor="middle">Month</text>
        <text x="15" y="120" font-family="Inter, sans-serif" font-size="12" fill="#333" text-anchor="middle" transform="rotate(-90, 15, 120)">Number of Uses</text>
        
        <!-- Data Lines -->
        <g transform="translate(50, 40)">
            <!-- Acquisition Model Line -->
            <polyline points="0,120 60,100 120,70 180,50 240,30 300,20" stroke="#2D5BFF" stroke-width="2" fill="none"></polyline>
            
            <!-- Development Model Line -->
            <polyline points="0,140 60,130 120,115 180,110 240,100 300,95" stroke="#2A9D8F" stroke-width="2" fill="none"></polyline>
            
            <!-- Valuation Model Line -->
            <polyline points="0,150 60,145 120,140 180,130 240,125 300,115" stroke="#E76F51" stroke-width="2" fill="none"></polyline>
        </g>
        
        <!-- Data Points -->
        <g transform="translate(50, 40)">
            <!-- Acquisition Model Points -->
            <circle cx="0" cy="120" r="4" fill="#2D5BFF"></circle>
            <circle cx="60" cy="100" r="4" fill="#2D5BFF"></circle>
            <circle cx="120" cy="70" r="4" fill="#2D5BFF"></circle>
            <circle cx="180" cy="50" r="4" fill="#2D5BFF"></circle>
            <circle cx="240" cy="30" r="4" fill="#2D5BFF"></circle>
            <circle cx="300" cy="20" r="4" fill="#2D5BFF"></circle>
            
            <!-- Development Model Points -->
            <circle cx="0" cy="140" r="4" fill="#2A9D8F"></circle>
            <circle cx="60" cy="130" r="4" fill="#2A9D8F"></circle>
            <circle cx="120" cy="115" r="4" fill="#2A9D8F"></circle>
            <circle cx="180" cy="110" r="4" fill="#2A9D8F"></circle>
            <circle cx="240" cy="100" r="4" fill="#2A9D8F"></circle>
            <circle cx="300" cy="95" r="4" fill="#2A9D8F"></circle>
            
            <!-- Valuation Model Points -->
            <circle cx="0" cy="150" r="4" fill="#E76F51"></circle>
            <circle cx="60" cy="145" r="4" fill="#E76F51"></circle>
            <circle cx="120" cy="140" r="4" fill="#E76F51"></circle>
            <circle cx="180" cy="130" r="4" fill="#E76F51"></circle>
            <circle cx="240" cy="125" r="4" fill="#E76F51"></circle>
            <circle cx="300" cy="115" r="4" fill="#E76F51"></circle>
        </g>
        
        <!-- Legend -->
        <g transform="translate(200, 20)">
            <rect x="0" y="0" width="12" height="3" fill="#2D5BFF"></rect>
            <text x="18" y="3" font-family="Inter, sans-serif" font-size="11" fill="#333">Acquisition Models</text>
            
            <rect x="120" y="0" width="12" height="3" fill="#2A9D8F"></rect>
            <text x="138" y="3" font-family="Inter, sans-serif" font-size="11" fill="#333">Development Models</text>
            
            <rect x="260" y="0" width="12" height="3" fill="#E76F51"></rect>
            <text x="278" y="3" font-family="Inter, sans-serif" font-size="11" fill="#333">Valuation Models</text>
        </g>
        
        <!-- Chart Title -->
        <text x="200" y="15" font-family="Inter, sans-serif" font-size="14" font-weight="600" fill="#333F48" text-anchor="middle">Model Usage Over Time</text>
    </g>
</svg>