<?xml version="1.0" encoding="UTF-8"?>
<svg width="48px" height="48px" viewBox="0 0 48 48" version="1.1" xmlns="http://www.w3.org/2000/svg">
    <title>STR Logo</title>
    <g stroke="none" stroke-width="1" fill="none" fill-rule="evenodd">
        <rect fill="#053C71" x="0" y="0" width="48" height="48" rx="4"></rect>
        <path d="M8.7182,24.9819 C8.7182,20.5611 11.2734,17.6392 15.2614,17.6392 C19.0022,17.6392 21.6542,20.0339 21.8046,23.4291 L17.0862,23.4291 C16.9866,22.1707 16.1638,21.5182 15.1914,21.5182 C13.5682,21.5182 12.7454,22.9506 12.7454,24.9819 C12.7454,26.9899 13.443,28.4689 15.1914,28.4689 C16.1638,28.4689 17.089,27.7931 17.0862,26.5582 L21.8046,26.5582 C21.5538,30.1496 18.9774,32.3506 15.2614,32.3506 C11.1238,32.3506 8.7182,29.3533 8.7182,24.9819 Z" fill="#FFFFFF" fill-rule="nonzero"></path>
        <path d="M23.0862,17.9871 L34.9638,17.9871 L34.9638,21.8944 L27.4902,21.8944 L27.4902,23.3506 L33.6902,23.3506 L33.6902,27.0067 L27.4902,27.0067 L27.4902,32.0026 L23.0862,32.0026 L23.0862,17.9871 Z" fill="#FFFFFF" fill-rule="nonzero"></path>
        <path d="M36.5926,17.9871 L41.0734,17.9871 L41.0734,27.0351 L41.1502,27.0351 L44.7734,17.9871 L48.9998,17.9871 L48.9998,32.0026 L44.5158,32.0026 L44.5158,22.9819 L44.439,22.9819 L40.8158,32.0026 L36.5926,32.0026 L36.5926,17.9871 Z" fill="#FFFFFF" fill-rule="nonzero"></path>
    </g>
</svg>
