<svg viewBox="0 0 64 64" xmlns="http://www.w3.org/2000/svg" id="India--Streamline-Emoji" height="64" width="64"><desc>India Streamline Emoji: https://streamlinehq.com</desc><path d="M60 16.333333333333332h-8.426666666666666A61.18666666666667 61.18666666666667 0 0 1 32 13.173333333333334 60.97333333333333 60.97333333333333 0 0 0 12.493333333333332 10H4c-0.7733333333333332 0 -1.3333333333333333 0.4666666666666666 -1.3333333333333333 1.0533333333333332v34.666666666666664a1.2533333333333332 1.2533333333333332 0 0 0 1.3333333333333333 1.0533333333333332h8.493333333333332A61.33333333333333 61.33333333333333 0 0 1 32 49.946666666666665a60.82666666666666 60.82666666666666 0 0 0 19.53333333333333 3.173333333333333H60a1.24 1.24 0 0 0 1.3333333333333333 -1.0533333333333332V17.333333333333332a1.2533333333333332 1.2533333333333332 0 0 0 -1.3333333333333333 -1Z" fill="#ffffff" stroke="#45413c" stroke-linecap="round" stroke-linejoin="round" stroke-width="1"></path><path d="M2.6666666666666665 20.28h9.826666666666666A60.97333333333333 60.97333333333333 0 0 1 32 23.453333333333333 60.82666666666666 60.82666666666666 0 0 0 51.57333333333333 26.666666666666664h9.826666666666666v-9.333333333333332a1.2533333333333332 1.2533333333333332 0 0 0 -1.3333333333333333 -1.0533333333333332h-8.493333333333332A61.18666666666667 61.18666666666667 0 0 1 32 13.173333333333334 60.97333333333333 60.97333333333333 0 0 0 12.493333333333332 10H4c-0.7733333333333332 0 -1.3333333333333333 0.4666666666666666 -1.3333333333333333 1.0533333333333332Z" fill="#ff8a14" stroke="#45413c" stroke-linecap="round" stroke-linejoin="round" stroke-width="1"></path><path d="M2.6666666666666665 45.73333333333333a1.2533333333333332 1.2533333333333332 0 0 0 1.3333333333333333 1.0533333333333332h8.493333333333332A61.33333333333333 61.33333333333333 0 0 1 32 49.946666666666665a60.82666666666666 60.82666666666666 0 0 0 19.53333333333333 3.173333333333333H60c0.7733333333333332 0 1.3333333333333333 -0.4666666666666666 1.3333333333333333 -1.0533333333333332v-9.226666666666667h-9.76A60.82666666666666 60.82666666666666 0 0 1 32 39.666666666666664a60.959999999999994 60.959999999999994 0 0 0 -19.506666666666668 -3.16H2.6666666666666665Z" fill="#46b000" stroke="#45413c" stroke-linecap="round" stroke-linejoin="round" stroke-width="1"></path><path d="M26.875999999999998 33.916a6.359999999999999 5.68 65.41 1 0 10.329333333333333 -4.728 6.359999999999999 5.68 65.41 1 0 -10.329333333333333 4.728Z" fill="none" stroke="#009fd9" stroke-linecap="round" stroke-linejoin="round" stroke-width="1"></path><path d="M29.518666666666665 32.70666666666666a3.1066666666666665 2.7733333333333334 65.41 1 0 5.044 -2.309333333333333 3.1066666666666665 2.7733333333333334 65.41 1 0 -5.044 2.308Z" fill="#009fd9" stroke-width="1"></path><path d="m32.04 25.333333333333332 0 12.453333333333333" fill="none" stroke="#009fd9" stroke-linecap="round" stroke-linejoin="round" stroke-width="1"></path><path d="m26.226666666666667 31.04 11.613333333333333 1.04" fill="none" stroke="#009fd9" stroke-linecap="round" stroke-linejoin="round" stroke-width="1"></path><path d="m36 27.373333333333335 -7.88 8.413333333333332" fill="none" stroke="#009fd9" stroke-linecap="round" stroke-linejoin="round" stroke-width="1"></path><path d="M27.893333333333334 26.813333333333333 36 36.16" fill="none" stroke="#009fd9" stroke-linecap="round" stroke-linejoin="round" stroke-width="1"></path><path d="M16.666666666666664 60.666666666666664a15.333333333333332 2 0 1 0 30.666666666666664 0 15.333333333333332 2 0 1 0 -30.666666666666664 0Z" fill="#45413c" opacity=".15" stroke-width="1"></path></svg>