<?xml version="1.0" encoding="UTF-8"?>
<svg width="24px" height="24px" viewBox="0 0 24 24" version="1.1" xmlns="http://www.w3.org/2000/svg" xmlns:xlink="http://www.w3.org/1999/xlink">
    <g stroke="none" stroke-width="1" fill="none" fill-rule="evenodd">
        <path d="M19,3 L5,3 C3.9,3 3,3.9 3,5 L3,19 C3,20.1 3.9,21 5,21 L19,21 C20.1,21 21,20.1 21,19 L21,5 C21,3.9 20.1,3 19,3 Z M14,17 L7,17 L7,15 L14,15 L14,17 Z M17,13 L7,13 L7,11 L17,11 L17,13 Z M17,9 L7,9 L7,7 L17,7 L17,9 Z" fill="#2563EB"></path>
    </g>
</svg>
