<svg xmlns="http://www.w3.org/2000/svg" viewBox="0 0 200 50">
  <!-- Building icon -->
  <rect x="10" y="10" width="30" height="30" rx="2" ry="2" fill="#2D5BFF"/>
  <rect x="15" y="15" width="8" height="8" rx="1" ry="1" fill="white"/>
  <rect x="27" y="15" width="8" height="8" rx="1" ry="1" fill="white"/>
  <rect x="15" y="27" width="8" height="8" rx="1" ry="1" fill="white"/>
  <rect x="27" y="27" width="8" height="8" rx="1" ry="1" fill="white"/>
  
  <!-- AI Circuit Icon -->
  <circle cx="55" cy="25" r="15" fill="#0A2540"/>
  <path d="M45,25 L65,25 M55,15 L55,35 M48,18 L62,32 M48,32 L62,18" stroke="white" stroke-width="2"/>
  <circle cx="55" cy="25" r="3" fill="white"/>
  <circle cx="55" cy="15" r="2" fill="white"/>
  <circle cx="55" cy="35" r="2" fill="white"/>
  <circle cx="45" cy="25" r="2" fill="white"/>
  <circle cx="65" cy="25" r="2" fill="white"/>
  <circle cx="48" cy="18" r="2" fill="white"/>
  <circle cx="62" cy="32" r="2" fill="white"/>
  <circle cx="48" cy="32" r="2" fill="white"/>
  <circle cx="62" cy="18" r="2" fill="white"/>
  
  <!-- Text -->
  <text x="80" y="30" font-family="Inter, sans-serif" font-size="16" font-weight="600" fill="#0A2540">INVEST Data Intelligence</text>
</svg>